<svg xmlns="http://www.w3.org/2000/svg" xmlns:xlink="http://www.w3.org/1999/xlink" viewBox="0 0 155 179"><defs><style>.cls-1{fill:none;fill-rule:evenodd;}</style></defs><title>fighter-red</title><g id="Layer_2" data-name="Layer 2"><g id="fighter"><image width="155" height="179" transform="matrix(-1, 0, 0, 1, 155, 0)" xlink:href="../../fighter-sword-red.png"/></g><g id="fighter_legs" data-name="fighter legs"><path class="cls-1" d="M1.67,130.56h135c12.73,39.7-28.14,51.82-66,46l-29-1C26.73,167.07,6.55,149.08,1.67,130.56Z"/></g><g id="fighter_body" data-name="fighter body"><path class="cls-1" d="M2.56,130.56c-.1-11.13,2.27-15.76,3-25,11.6-2.7,21.18-12.91,25-24,20.06.16,16.25-6.25,26-9,12.25-3.47,32.44,4.19,45,1,2.06,7.25,11.91,13,20,11,2.17-13.7,23-68.79,33-72v12c-13.28,34.39-30.31,71-18,106Z"/></g><g id="fighter_head" data-name="fighter head"><path class="cls-1" d="M51.89,1.56c25.4,4.28,45.53,6,72,0,14.69,41-16.2,95-68,68C51.64,51.56,44.33,21.53,51.89,1.56Z"/></g></g></svg>