<svg xmlns="http://www.w3.org/2000/svg" xmlns:xlink="http://www.w3.org/1999/xlink" viewBox="0 0 126 181.11"><defs><style>.cls-1{fill:none;fill-rule:evenodd;}</style></defs><title>mage-red</title><g id="Layer_2" data-name="Layer 2"><g id="mage"><image width="126" height="181" transform="matrix(-1, 0, 0, 1, 126, 0)" xlink:href="../../mage-red.png"/></g><g id="mage_legs" data-name="mage legs"><path class="cls-1" d="M10.22,135.11c16.3-.23,100.44-3.79,107,2,3,6,6.27,17.85,5,24-16.71,3.18-27.85,16.15-42,20l-58-3C15.17,160.22,7.9,157.74,10.22,135.11Z"/></g><g id="mage_body" data-name="mage body"><path class="cls-1" d="M35.33,76.11c9.09.24,44.23-3.12,51,3,11,11.32,19.23,21.16,36,27,.33,12.37-4.2,16.83-6,29H9.33v-1c4.14-15.43-8.75-22.25-7-29C17.56,100.74,27.24,87.74,35.33,76.11Z"/></g><g id="mage_head" data-name="mage head"><path class="cls-1" d="M63.22,1.11c9.77,5.22,19.22,10.52,30,16l4,26-4,14c5.63.64,6.51,1.44,9,5-7.31,20.78-58.16,20.19-74,8l-6-12,8-2c-1.47-12.65-1.83-29.1,3-38C44.12,15.81,54.8,7,63.22,1.11Z"/></g></g></svg>