<svg xmlns="http://www.w3.org/2000/svg" xmlns:xlink="http://www.w3.org/1999/xlink" viewBox="0 0 137 169"><defs><style>.cls-1{fill:none;fill-rule:evenodd;}</style></defs><title>bandit</title><g id="Layer_2" data-name="Layer 2"><g id="bandit"><image width="137" height="169" xlink:href="../../ogma.png"/></g><g id="bandit_legs" data-name="bandit legs"><path class="cls-1" d="M30,98l38,1c4.4,15.44,10.4,52.37,9,68,0,0-59.46-.84-60-1,1.41-8.93,4.82-13.18,5-25L2,151l-1-1C3.78,130.11,21.14,114.12,30,98Z"/></g><g id="bandit_body" data-name="bandit body"><path class="cls-1" d="M131,6h3c.79,43-27.77,63-28,108-15.08,4.69-14.67,20-28,24l-1-1c-.28-15.85,4.19-25-7-37-11.56-2.25-28.9-3.33-41-1-5.44,6.31-14.5,26.47-25,15-2.44-2.67-3.86-5.72-2-10,3.85-7.79,13.05-10.56,18-17,6.79-8.84,6-19.4,15-26,15.15,7,26.09-1.21,37-5,3,5,6.6,7.31,14,8V63l-3-7c9.86-3.38,10.85-12.8,18-18,4.53-3.29,7.87.77,10-2C118.18,24.35,122.32,15.41,131,6Z"/></g><g id="bandit_head" data-name="bandit head"><path class="cls-1" d="M58,1c46.3,6.79,19.17,37.61,28,63-8.19-.83-10.44-3.93-15-8-12.34,6.3-26.07,11.67-40,2-1.15-6.58-.71-13-5-17-1.42,4-.41,1.79-3,3V42c-2.42-5.62.85-9.28,2-13C33.24,2.29,29.42,11.75,58,1Z"/></g></g></svg>