<svg xmlns="http://www.w3.org/2000/svg" xmlns:xlink="http://www.w3.org/1999/xlink" viewBox="0 0 166 180"><defs><style>.cls-1{fill:none;fill-rule:evenodd;}</style></defs><title>black-knight</title><g id="Layer_2" data-name="Layer 2"><g id="black_knight" data-name="black knight"><image width="166" height="180" xlink:href="../../black-knight.png"/></g><g id="black_knight_legs" data-name="black knight legs"><path class="cls-1" d="M35.67,120.33l83,1c1.59,6.43,4.71,9.35,9,13l-4,5c3.13,4.42,7.17,6.93,8,11,.68,13.32-20.94,10.28-29,18-3.38,3.24-.55,7.19-5,10l-6,1c-8-3.88-9.49-8.21-11-16-6.06,2.93-14.06,2.25-19,5-1.16,8.76-6.77,7.87-14,10l-5-2c.25-11.94,1.3-12.61,3-22h-1c-5.22,2.94-4.4,6.87-8,11-7.68-4.47-23.55-3.48-34-6l-1-2c6.68-12.06,15.74-10.28,25-19C28.2,136.89,33.41,123.9,35.67,120.33Z"/></g><g id="black_knight_body" data-name="black knight body"><path class="cls-1" d="M52.67,47.33l3,17,9,7,9-2,2,4,15-7c4.68-8.23-2.07-18.52,5-24,11.08-3.93,22.89,5.23,29,10-.72,6-1.52,8.31,0,12,6.82,3.15,11.5,10.57,15,17-.81,4.44-.39,13.36-4,16l-14,1,3,7c11.53,4.47,15.76-1.49,27,1l1,5c-2.63,3.54-3.07,4.4-9,5l1,2c9.94,2.59,15.94,11.44,20,20-1.89,3.76-25.23,9.84-32,11l-8-9,3-6c-3.91-4.36-7.25-7.2-9-14h-84c-5,14-15.62,17.54-28,24-3.83-1.32-2.08,0-4-3-8.75-21.94,25.68-34.35,33-47l-14-5v-4c6-9.5,12.11-14.64,20-22-1.26-6-3.93-12.57,1-16Z"/></g><g id="black_knight_head" data-name="black knight head"><path class="cls-1" d="M73.67.33c12.6,4.42,28.86,12.52,38,21l-6,21c-5-1.08-9.18-.9-13,1l-2,23c-4.16,1.18-24,5-24,5-12.61-3.75-26.33-43.82-20-58,8-3,9.11-9.15,16-12l2,7c3.18-2.76,3.36-1.07,8,0Z"/></g></g></svg>