<svg class="enemy-sprite" style="height: 27vw" xmlns="http://www.w3.org/2000/svg" xmlns:xlink="http://www.w3.org/1999/xlink" viewBox="0 0 454 446">
        <defs>
            <style>.cls-1{fill:transparent;fill-rule:evenodd;}</style>
        </defs>
            <title>dragon-king</title>
            <g id="Layer2" data-name="Layer 2">
            <g id="dragon_king" data-name="dragon king">
                <image width="454" height="446" xlink:href="./dragon-king.png"/>
            </g>
            <g id="dragon_legs" data-part="legs">
                <path class="cls-1" d="M294,243c15,11.4,13.28,26.78,22,45,12.93,2,20.87,9.41,30,15,32.36,19.82,58.86,33.49,42,82,18.57-3.86,30.33-18.65,45-27l4,1,16,32c-13.27,16.58-21.44,32.48-43,41l-27,5c-4.92,1.78-12.1,6-22,4l-23-10c-15.52.83-56.88,11.06-74,15,0,0-69.75-6.49-72-7-20-4.54-77.35,11.84-85,3-16.8-4.73-49.2-28.37-52-45l10-50c3.09-13.64,1.74-26.51,8-37,5.71-9.58,16.45-15.18,24-23l5,1c4.09,12.5,11,38.29,24,42,.63-8.4.56-18.14,6-22l3-2c31.89,5.3,33.92,46.77,33,82h4c2.76-4.45,5.21-7.79,9-6,12.43,6.68,12.13,12.32,26,3,7.13-41.66-9-103.52,30-116,9.17-2.94,21.21-1.94,28,3,5.75,4.19,7.82,11.18,12,17l2-1Z"/>
            </g>
            <g id="dragon_body" data-part="body">
                <path class="cls-1" d="M264,43c37.69-.56,53.36,12.45,77,23,45.86,20.48,76.83,37.8,91,90,3.76,13.86,17.16,42.52,12,58l-46,37c-17.73-5.71-86.25-13.68-105-9l-14,47-4-1c-6.94-25.72-44.3-24.46-58-6-10.88,14.67-5.75,80.61-10,104-11.89,7-19,5.11-27-6l-8,8-2,1-2-1c1-44.67-1.18-57.35-26-81-17.46-.63-14.25,11.55-16,23l-4-2c-15.48-8-23.48-54.11-25-74H95l-57-7c-1.94-4.58-27.4-24-33-26,.51-17.91,6.76-33,11-48l32-12c14.7-3.91,24.27.25,34-7l12-17c6.41,4.67,18.32,9.19,24,15,9.79,10,7.2,34.21,15,46,8.33,2.65,11.48,7.82,17,13h4c22.43-26.28,53.08-33.21,90-46-2.18-16.63-9.57-27.6-13-42,35.56-9.51,46.14-6.42,61-38-10.13-10.72-34.78-8.59-41-23l-1-7C253.71,47.63,257.09,47.08,264,43Z"/>
            </g>
            <g id="dragon_head" data-part="head">
                <path class="cls-1" d="M95,1c14.22,2.33,65.87,7.11,73,15-6.22,12.59-16.9,25-27,34l1,2c47.47,11.85,72.41,35,90,76,4.49,10.47,16.08,29.37,10,43-21.38,2.42-45.83,12.41-62,22-9.55,5.66-18.32,16.09-31,18-5.08-7.06-14.75-9.85-19-17-7.4-14.18-6.14-31.22-14-43-30-8.1-83.37,26-109,23C-14.51,130.62,66.77,22.45,95,1Z"/>
            </g>
        </g>
    </svg>