<svg xmlns="http://www.w3.org/2000/svg" xmlns:xlink="http://www.w3.org/1999/xlink" viewBox="0 0 169 179.19">
    <defs>
        <style>
            .cls-1{fill:none;fill-rule:evenodd;}
        </style>
    </defs>
    <title>knight-red</title>
    <g id="Layer2" data-name="Layer 2">
        <g id="knight">
            <image width="169" height="179" transform="matrix(-1, 0, 0, 1, 169, 0.19)" xlink:href="../../knight-sword-red.png"/>
        </g>
        <g id="knight_legs" data-part="legs">
            <path class="cls-1" d="M149.78,128.41c-.29,35.94-18.94,13.32-33,28h-2c.69,9.43,2.89,14.47-1,21-14.91-1.11-43.52,2.74-56-3,4.19-8.15,1.53-31.73,4-46Z"/>
        </g>
        <g id="knight_body" data-part="body">
            <path class="cls-1" d="M31.78,44.41l16,8,19,1c.21,11.83,6.83,14.42,13,20,17.62-3.8,26.67-19.32,45-22l2,1c.75,11.23,9.46,11.47,13,20l4,19h1l22,13c-9.25,10.73-14.26,7-17,24h-87v1l-7,17c-6.13,10.63-13.56,22.45-22,31l-5-4c-16.12-35.42-42-63.85-19-113C17.05,61.27,26.9,49.77,31.78,44.41Z"/>
        </g>
        <g id="knight_head" data-part="head">
            <path class="cls-1" d="M69,1.41c12-.33,49.67-4.4,55,3,3.89,9,.34,39.11-3,45-7.21,9-30.75,21.26-43,24-13.44-12.52-28-41.65-20-71Z"/>
        </g>
    </g>
</svg>