<svg class="enemy-sprite" xmlns="http://www.w3.org/2000/svg" xmlns:xlink="http://www.w3.org/1999/xlink" viewBox="0 0 126 181">
    <defs>
        <style>.cls-1{fill:none;fill-rule:evenodd;}</style>
    </defs>
    <title>mage-blue</title>
    <g id="Layer2" data-name="Layer 2">
        <g id="dragon_legs" data-name="dragon legs">
            <image width="126" height="181" transform="matrix(-1, 0, 0, 1, 126, 0)" xlink:href="../../mage-blue.png"/>
        </g>
        <g id="mage_head" data-part="head">
            <path class="cls-1" d="M9,135c16.29-.23,100.44-3.79,107,2,3,6,6.27,17.85,5,24-16.72,3.18-27.85,16.14-42,20l-58-3C14,160.11,6.68,157.63,9,135Z"/>
        </g>
        <g id="mage_head" data-part="head">
            <path class="cls-1" d="M34.11,76c9.09.24,44.23-3.12,51,3,11,11.32,19.23,21.16,36,27,.32,12.37-4.2,16.83-6,29H8.11v-1c4.14-15.43-8.75-22.25-7-29C16.34,100.63,26,87.63,34.11,76Z"/>
        </g>
        <g id="mage_head" data-part="head">
            <path class="cls-1" d="M62,1c9.76,5.22,19.22,10.52,30,16l4,26L92,57c5.63.64,6.51,1.44,9,5-7.31,20.78-58.17,20.18-74,8L21,58l8-2c-1.47-12.65-1.83-29.1,3-38C42.9,15.7,53.57,6.93,62,1Z"/>
        </g>
    </g>
</svg>