<svg xmlns="http://www.w3.org/2000/svg" xmlns:xlink="http://www.w3.org/1999/xlink" viewBox="0 0 111 176"><defs><style>.cls-1{fill:none;fill-rule:evenodd;}</style></defs><title>manakete-blue</title><g id="Layer_2" data-name="Layer 2"><g id="Manakete"><image width="111" height="176" transform="matrix(-1, 0, 0, 1, 111, 0)" xlink:href="../../manakete-blue.png"/></g><g id="manakete_legs" data-name="manakete legs"><path class="cls-1" d="M67.56,127.33c-.18,5.76.38,9.73,2,13,11.43,3.55,23.16,3.19,39,3-.67,5.49-2.08,10.57-6,13l-16,2c.46,6.24.56,5.85-2,10-21.81,7.27-62.07,11-84-2,.24-15.76,6.93-26.63,11-39Z"/></g><g id="manakete_body" data-name="manakete body"><path class="cls-1" d="M109.56,143.33c-17.75.46-30.95,1.74-42-5v-11h-56c-3.51-10-13.71-21.65-8-34,12.41-4.31,15.17-11.66,19-25,19.39,7.06,35.52-2.18,53,2,2.39,14.92,16.65,17.1,24,27C108.24,109.05,110.05,124.81,109.56,143.33Z"/></g><g id="manakete_head" data-name="manakete head"><path class="cls-1" d="M48.67,1.33c15.38,2.38,48.14,37.22,50,52-18.23,14.54-66.23,35.15-84,4C20,32.14,35.27,18,48.67,1.33Z"/></g></g></svg>