<svg xmlns="http://www.w3.org/2000/svg" xmlns:xlink="http://www.w3.org/1999/xlink" viewBox="0 0 114 164"><defs><style>.cls-1{fill:none;fill-rule:evenodd;}</style></defs><title>thief-green</title><g id="Layer_2" data-name="Layer 2"><g id="thief"><image width="114" height="164" transform="matrix(-1, 0, 0, 1, 114, 0)" xlink:href="thief-green1.png"/></g><g id="thief_legs" data-name="thief legs"><path class="cls-1" d="M110.44,111.22c.75,9.45,2.5,22.27-2,29-18.73,24.24-56,26.42-95,19-6.23-19.45-14.72-27.2-10-48Z"/></g><g id="thief_body" data-name="thief body"><path class="cls-1" d="M74.44,60.22c3.79,1.5,1.89.2,4,3l14,17,18,7c1.29,3.4-2.41,16.2,0,24H3.44l1-4c-2.24-5.21-4.79-12.75-3-16,1.16-4.15,2.63-10.7,6-13,10-4.09,20.64-1.93,23-14C41.34,68.17,67.06,66.69,74.44,60.22Z"/></g><g id="thief_head" data-name="thief head"><path class="cls-1" d="M53.11,1.22c26.73.46,48.15,26.66,53,48-6.26,4.12-14.3,4.2-24,3-5,15.1-49.68,21.33-59,6C6.17,30.35,39.39,8.15,53.11,1.22Z"/></g></g></svg>